<svg display="none" xmlns="http://www.w3.org/2000/svg">
  <symbol id="fb" viewBox="0 0 470.513 470.513">
    <path d="M271.521,154.17v-40.541c0-6.086,0.28-10.8,0.849-14.13c0.567-3.335,1.857-6.615,3.859-9.853
		c1.999-3.236,5.236-5.47,9.706-6.708c4.476-1.24,10.424-1.858,17.85-1.858h40.539V0h-64.809c-37.5,0-64.433,8.897-80.803,26.691
		c-16.368,17.798-24.551,44.014-24.551,78.658v48.82h-48.542v81.086h48.539v235.256h97.362V235.256h64.805l8.566-81.086H271.521z"/>
  </symbol>
  <symbol id="li" viewBox="0 0 21.903 21.903">
    <path d="M2.67,1.211c0.682,0,1.216,0.215,1.604,0.643S4.87,2.822,4.898,3.469
		c0,0.639-0.218,1.178-0.657,1.616C3.802,5.522,3.202,5.741,2.443,5.741H2.416c-0.741,0-1.328-0.219-1.765-0.656
		C0.219,4.647,0,4.108,0,3.469c0-0.657,0.238-1.197,0.718-1.622C1.198,1.423,1.85,1.211,2.67,1.211z M0.287,7.535H4.97v13.156H0.287
		V7.535z M21.903,13.148v7.543h-4.682v-7.036c0-0.895-0.184-1.612-0.55-2.158c-0.364-0.541-0.973-0.812-1.833-0.812
		c-0.655,0-1.181,0.166-1.573,0.5c-0.393,0.332-0.678,0.699-0.85,1.102c-0.056,0.146-0.091,0.307-0.11,0.486
		c-0.018,0.176-0.026,0.367-0.026,0.568v7.351H7.568c0.02-2.226,0.031-4.268,0.031-6.12v-2.339v-2.125
		c0-0.647-0.007-1.199-0.018-1.657C7.575,7.997,7.568,7.69,7.568,7.535h4.711v1.863l-0.026,0.054h0.026V9.398
		c0.146-0.229,0.333-0.468,0.561-0.719c0.231-0.25,0.507-0.484,0.843-0.7c0.333-0.214,0.734-0.39,1.204-0.533
		c0.473-0.141,1.011-0.211,1.624-0.211c0.762,0,1.474,0.116,2.138,0.349c0.662,0.233,1.231,0.598,1.715,1.096
		c0.481,0.495,0.858,1.111,1.132,1.847C21.769,11.261,21.903,12.135,21.903,13.148z"/>
  </symbol>
  <symbol id="tw" viewBox="0 0 94.135 94.135">
    <path d="M39.11,67.145c2.201,2.27,4.872,3.404,8.011,3.404h22.612c3.135,0,5.83,1.159,8.072,3.475
		c2.245,2.312,3.364,5.084,3.364,8.32s-1.119,6.018-3.364,8.324c-2.242,2.311-4.928,3.467-8.07,3.467H47.131
		c-9.416,0-17.462-3.445-24.143-10.344c-6.686-6.895-10.026-15.202-10.026-24.919v-47.07c0-3.329,1.114-6.13,3.34-8.4
		C18.527,1.136,21.247,0,24.457,0c3.115,0,5.796,1.155,8.016,3.473c2.229,2.309,3.344,5.081,3.344,8.321v11.791h33.885
		c3.148,0,5.847,1.158,8.098,3.471c2.253,2.311,3.373,5.086,3.373,8.325c0,3.233-1.12,6.009-3.365,8.321
		c-2.242,2.311-4.936,3.468-8.072,3.468H35.814v11.691C35.814,62.107,36.911,64.867,39.11,67.145z"/>
  </symbol>
</svg>